<svg width="100" height="100" viewBox="0 0 100 100" fill="none" xmlns="http://www.w3.org/2000/svg">
    <defs>
        <linearGradient id="infpGradientDark" x1="0%" y1="0%" x2="100%" y2="100%">
            <stop offset="0%" stop-color="#1E293B"/>
            <stop offset="100%" stop-color="#0F172A"/>
        </linearGradient>
        <linearGradient id="glowGradient" x1="0%" y1="0%" x2="100%" y2="100%">
            <stop offset="0%" stop-color="#818CF8"/>
            <stop offset="100%" stop-color="#6366F1"/>
        </linearGradient>
    </defs>
    <rect width="100" height="100" rx="22" fill="url(#infpGradientDark)" stroke="#334155" stroke-width="2"/>
    <circle cx="50" cy="48" r="30" stroke="#F8FAFC" stroke-width="2.5" fill="none" opacity="0.9"/>
    <circle cx="50" cy="48" r="26" stroke="#818CF8" stroke-width="1" fill="none" opacity="0.4"/>
    <path d="M50 48 L50 24 L45.5 33 Z" fill="url(#glowGradient)"/>
    <path d="M50 48 L50 24 L54.5 33 Z" fill="url(#glowGradient)" opacity="0.85"/>
    <path d="M50 48 L50 72 L45.5 63 Z" fill="#F8FAFC" opacity="0.6"/>
    <path d="M50 48 L50 72 L54.5 63 Z" fill="#F8FAFC" opacity="0.4"/>
    <g stroke="#F8FAFC" stroke-width="2" stroke-linecap="round" stroke-linejoin="round" fill="none" opacity="0.9">
        <path d="M47.5 13 L47.5 5 L52.5 13 L52.5 5"/>
        <path d="M13 46 L13 54"/>
        <path d="M89 46 L89 54 M85 46 L93 46"/>
        <path d="M47.5 83 L47.5 93 M47.5 83 L51 83 Q52.5 83 52.5 85.5 Q52.5 88 51 88 L47.5 88"/>
    </g>
    <circle cx="50" cy="48" r="3" fill="#818CF8"/>
</svg>
